<svg id="visual" viewBox="0 0 960 540" width="960" height="540" xmlns="http://www.w3.org/2000/svg" xmlns:xlink="http://www.w3.org/1999/xlink" version="1.1"><rect x="0" y="0" width="960" height="540" fill="#1a1e23"></rect><defs><linearGradient id="grad1_0" x1="43.8%" y1="0%" x2="100%" y2="100%"><stop offset="14.444444444444446%" stop-color="#262f3e" stop-opacity="1"></stop><stop offset="85.55555555555554%" stop-color="#262f3e" stop-opacity="1"></stop></linearGradient></defs><defs><linearGradient id="grad1_1" x1="43.8%" y1="0%" x2="100%" y2="100%"><stop offset="14.444444444444446%" stop-color="#262f3e" stop-opacity="1"></stop><stop offset="85.55555555555554%" stop-color="#1a1e23" stop-opacity="1"></stop></linearGradient></defs><defs><linearGradient id="grad2_0" x1="0%" y1="0%" x2="56.3%" y2="100%"><stop offset="14.444444444444446%" stop-color="#262f3e" stop-opacity="1"></stop><stop offset="85.55555555555554%" stop-color="#262f3e" stop-opacity="1"></stop></linearGradient></defs><defs><linearGradient id="grad2_1" x1="0%" y1="0%" x2="56.3%" y2="100%"><stop offset="14.444444444444446%" stop-color="#1a1e23" stop-opacity="1"></stop><stop offset="85.55555555555554%" stop-color="#262f3e" stop-opacity="1"></stop></linearGradient></defs><g transform="translate(960, 0)"><path d="M0 486C-63.5 478.8 -126.9 471.6 -186 449C-245.1 426.5 -299.7 388.6 -341.5 341.5C-383.3 294.5 -412.3 238.3 -434.2 179.9C-456.2 121.4 -471.1 60.7 -486 0L0 0Z" fill="#202630"></path><path d="M0 243C-31.7 239.4 -63.5 235.8 -93 224.5C-122.5 213.2 -149.9 194.3 -170.8 170.8C-191.7 147.2 -206.1 119.2 -217.1 89.9C-228.1 60.7 -235.5 30.4 -243 0L0 0Z" fill="#262f3e"></path></g><g transform="translate(0, 540)"><path d="M0 -486C62.5 -472.9 125.1 -459.8 179.9 -434.2C234.7 -408.7 281.8 -370.6 328.8 -328.8C375.8 -287 422.8 -241.4 449 -186C475.2 -130.6 480.6 -65.3 486 0L0 0Z" fill="#202630"></path><path d="M0 -243C31.3 -236.4 62.5 -229.9 89.9 -217.1C117.3 -204.3 140.9 -185.3 164.4 -164.4C187.9 -143.5 211.4 -120.7 224.5 -93C237.6 -65.3 240.3 -32.6 243 0L0 0Z" fill="#262f3e"></path></g></svg>